<!-- dimensions based on tournament standard board: 21" x 26" -->
<svg version="1.1" xmlns="http://www.w3.org/2000/svg" height="420" width="520">

  <!-- frame -->
  <rect x="0" y="0" height="420" width="520" fill="white" stroke="black" stroke-width="5px" />

  <!-- left rect -->
  <rect x="20" y="20" height="380" width="216" fill="green" stroke="black" />

  <!-- right rect -->
  <rect x="284" y="20" height="380" width="216" fill="green" stroke="black" />

  <!-- pips: top-left -->
  <polygon points="20,20 38,170 54,20" fill="gainsboro" stroke="black" />
  <polygon points="56,20 74,170 90,20" fill="grey" stroke="black" />
  <polygon points="92,20 110,170 126,20" fill="gainsboro" stroke="black" />
  <polygon points="128,20 146,170 162,20" fill="grey" stroke="black" />
  <polygon points="164,20 182,170 200,20" fill="gainsboro" stroke="black" />
  <polygon points="202,20 220,170 236,20" fill="grey" stroke="black" />

  <!-- pips: top-right -->
  <polygon points="284,20 302,170 318,20" fill="gainsboro" stroke="black" />
  <polygon points="320,20 338,170 354,20" fill="grey" stroke="black" />
  <polygon points="356,20 374,170 390,20" fill="gainsboro" stroke="black" />
  <polygon points="392,20 410,170 426,20" fill="grey" stroke="black" />
  <polygon points="428,20 446,170 462,20" fill="gainsboro" stroke="black" />
  <polygon points="464,20 482,170 498,20" fill="grey" stroke="black" />

  <!-- pips: bottom-left -->
  <polygon points="20,400 38,250 54,400" fill="grey" stroke="black" />
  <polygon points="56,400 74,250 90,400" fill="gainsboro" stroke="black" />
  <polygon points="92,400 110,250 126,400" fill="grey" stroke="black" />
  <polygon points="128,400 146,250 162,400" fill="gainsboro" stroke="black" />
  <polygon points="164,400 182,250 200,400" fill="grey" stroke="black" />
  <polygon points="202,400 220,250 236,400" fill="gainsboro" stroke="black" />

  <!-- pips: bottom-right -->
  <polygon points="284,400 302,250 318,400" fill="grey" stroke="black" />
  <polygon points="320,400 338,250 354,400" fill="gainsboro" stroke="black" />
  <polygon points="356,400 374,250 390,400" fill="grey" stroke="black" />
  <polygon points="392,400 410,250 426,400" fill="gainsboro" stroke="black" />
  <polygon points="428,400 446,250 462,400" fill="grey" stroke="black" />
  <polygon points="464,400 482,250 498,400" fill="gainsboro" stroke="black" />

  <!-- text: top-left -->
  <text x="38" y="17" font-family="arial" text-anchor="middle">13</text>
  <text x="74" y="17" font-family="arial" text-anchor="middle">14</text>
  <text x="110" y="17" font-family="arial" text-anchor="middle">15</text>
  <text x="146" y="17" font-family="arial" text-anchor="middle">16</text>
  <text x="182" y="17" font-family="arial" text-anchor="middle">17</text>
  <text x="218" y="17" font-family="arial" text-anchor="middle">18</text>

  <!-- text: top-right -->
  <text x="302" y="17" font-family="arial" text-anchor="middle">19</text>
  <text x="338" y="17" font-family="arial" text-anchor="middle">20</text>
  <text x="374" y="17" font-family="arial" text-anchor="middle">21</text>
  <text x="410" y="17" font-family="arial" text-anchor="middle">22</text>
  <text x="446" y="17" font-family="arial" text-anchor="middle">23</text>
  <text x="482" y="17" font-family="arial" text-anchor="middle">24</text>

  <!-- text: bottom-left -->
  <text x="38" y="414" font-family="arial" text-anchor="middle">12</text>
  <text x="74" y="414" font-family="arial" text-anchor="middle">11</text>
  <text x="110" y="414" font-family="arial" text-anchor="middle">10</text>
  <text x="146" y="414" font-family="arial" text-anchor="middle">9</text>
  <text x="182" y="414" font-family="arial" text-anchor="middle">8</text>
  <text x="218" y="414" font-family="arial" text-anchor="middle">7</text>

  <!-- text: bottom-right -->
  <text x="302" y="414" font-family="arial" text-anchor="middle">6</text>
  <text x="338" y="414" font-family="arial" text-anchor="middle">5</text>
  <text x="374" y="414" font-family="arial" text-anchor="middle">4</text>
  <text x="410" y="414" font-family="arial" text-anchor="middle">3</text>
  <text x="446" y="414" font-family="arial" text-anchor="middle">2</text>
  <text x="482" y="414" font-family="arial" text-anchor="middle">1</text>

  <!-- pieces -->
  <!-- 13-1 -->
  <circle cx="37" cy="35" r="14" fill="black" stroke="black" stroke-width="2px" />
  <!-- 13-2 -->
  <circle cx="37" cy="64" r="14" fill="white" stroke="black" stroke-width="2px" />
  <!-- 13-3 -->
  <circle cx="37" cy="93" r="14" fill="black" stroke="black" stroke-width="2px" />
  <!-- 13-4 -->
  <circle cx="37" cy="122" r="14" fill="white" stroke="black" stroke-width="2px" />
  <!-- 13-5 -->
  <circle cx="37" cy="151" r="14" fill="black" stroke="black" stroke-width="2px" />

  <!-- 14-1 -->
  <circle cx="73" cy="35" r="14" fill="black" stroke="black" stroke-width="2px" />
  <!-- 14-2 -->
  <circle cx="73" cy="64" r="14" fill="white" stroke="black" stroke-width="2px" />
  <!-- 14-3 -->
  <circle cx="73" cy="93" r="14" fill="black" stroke="black" stroke-width="2px" />
  <!-- 14-4 -->
  <circle cx="73" cy="122" r="14" fill="white" stroke="black" stroke-width="2px" />
  <!-- 14-5 -->
  <circle cx="73" cy="151" r="14" fill="black" stroke="black" stroke-width="2px" />

</svg>





















